<mxfile host="app.diagrams.net" modified="2023-09-11T04:53:28.426Z" agent="Mozilla/5.0 (Windows NT 10.0; Win64; x64) AppleWebKit/537.36 (KHTML, like Gecko) Chrome/116.0.0.0 Safari/537.36" version="21.7.4" etag="E29f64v_abIklHnXj62v" type="github">
  <diagram name="Страница — 1" id="NtRdYyr6ZoKVLL-gdddZ">
    <mxGraphModel>
      <root>
        <mxCell id="0" />
        <mxCell id="1" parent="0" />
      </root>
    </mxGraphModel>
  </diagram>
</mxfile>
